<svg version="1.1" xmlns="http://www.w3.org/2000/svg" xmlns:xlink="http://www.w3.org/1999/xlink" width="12" height="14" viewBox="0 0 12 14">
<path d="M6.875 9.375v1.25q0 0.109-0.070 0.18t-0.18 0.070h-1.25q-0.109 0-0.18-0.070t-0.070-0.18v-1.25q0-0.109 0.070-0.18t0.18-0.070h1.25q0.109 0 0.18 0.070t0.070 0.18zM8.875 5.5q0 0.391-0.117 0.703t-0.355 0.539-0.406 0.344-0.465 0.281q-0.25 0.141-0.363 0.219t-0.203 0.187-0.090 0.227v0.25q0 0.109-0.070 0.18t-0.18 0.070h-1.25q-0.109 0-0.18-0.070t-0.070-0.18v-0.531q0-0.273 0.082-0.504t0.187-0.371 0.305-0.277 0.32-0.199 0.348-0.164q0.414-0.195 0.586-0.336t0.172-0.383q0-0.328-0.34-0.559t-0.746-0.23q-0.438 0-0.742 0.211-0.227 0.156-0.625 0.648-0.070 0.094-0.195 0.094-0.086 0-0.148-0.047l-0.844-0.641q-0.078-0.055-0.094-0.156t0.039-0.18q0.953-1.5 2.727-1.5 1.008 0 1.863 0.699t0.855 1.676zM6 2q-1.016 0-1.941 0.398t-1.594 1.066-1.066 1.594-0.398 1.941 0.398 1.941 1.066 1.594 1.594 1.066 1.941 0.398 1.941-0.398 1.594-1.066 1.066-1.594 0.398-1.941-0.398-1.941-1.066-1.594-1.594-1.066-1.941-0.398zM12 7q0 1.633-0.805 3.012t-2.184 2.184-3.012 0.805-3.012-0.805-2.184-2.184-0.805-3.012 0.805-3.012 2.184-2.184 3.012-0.805 3.012 0.805 2.184 2.184 0.805 3.012z"></path>
</svg>
